<svg width="17" height="15" viewBox="0 0 17 15" fill="none" xmlns="http://www.w3.org/2000/svg">
<path d="M15.5867 8.8275L16.982 2.73375C17.0054 2.63084 17.0053 2.52399 16.9815 2.42114C16.9578 2.31829 16.911 2.22206 16.8447 2.13958C16.7784 2.05711 16.6942 1.9905 16.5985 1.9447C16.5027 1.8989 16.3978 1.87508 16.2915 1.875H4.69872L4.4284 0.562083C4.39574 0.403588 4.30901 0.261124 4.18284 0.158727C4.05667 0.0563297 3.89878 0.000268014 3.7358 1.23578e-07H0.708543C0.615481 -5.46517e-05 0.52332 0.0181002 0.43733 0.0534266C0.351341 0.088753 0.27321 0.140558 0.207405 0.20588C0.141599 0.271201 0.0894105 0.348758 0.0538224 0.434115C0.0182343 0.519472 -5.50565e-05 0.610955 1.24493e-07 0.703333V1.17208C1.0815e-07 1.26443 0.0183302 1.35587 0.0539429 1.44117C0.0895557 1.52648 0.141753 1.60399 0.207553 1.66927C0.273353 1.73455 0.351465 1.78631 0.437427 1.82161C0.523389 1.85691 0.615516 1.87506 0.708543 1.875H2.77037L4.84395 11.9367C4.54358 12.1078 4.30496 12.3683 4.16177 12.6813C4.01858 12.9944 3.97806 13.3441 4.04593 13.6813C4.11381 14.0184 4.28664 14.3259 4.54004 14.5602C4.79344 14.7946 5.11459 14.944 5.45816 14.9874C5.80173 15.0308 6.15035 14.966 6.45481 14.8021C6.75927 14.6383 7.00419 14.3836 7.15497 14.0741C7.30576 13.7646 7.3548 13.4159 7.29518 13.0772C7.23555 12.7386 7.07027 12.4271 6.82267 12.1867H13.0123C12.7617 12.4306 12.5959 12.7475 12.5389 13.0913C12.4819 13.4351 12.5367 13.788 12.6954 14.0988C12.854 14.4096 13.1082 14.6622 13.4212 14.8199C13.7342 14.9776 14.0896 15.0323 14.436 14.976C14.7824 14.9198 15.1018 14.7554 15.3477 14.5069C15.5937 14.2583 15.7536 13.9385 15.8041 13.5937C15.8546 13.2489 15.7932 12.8971 15.6288 12.5892C15.4643 12.2814 15.2054 12.0336 14.8895 11.8817L15.0523 11.1704C15.0758 11.0675 15.0757 10.9606 15.0519 10.8577C15.0281 10.7548 14.9813 10.6586 14.915 10.5761C14.8486 10.4936 14.7644 10.427 14.6686 10.3812C14.5727 10.3355 14.4678 10.3117 14.3614 10.3117H6.43733L6.24425 9.37417H14.8962C15.0567 9.37419 15.2124 9.32011 15.3378 9.22079C15.4633 9.12147 15.551 8.9828 15.5867 8.8275Z" fill="#359D3F"/>
</svg>